<?xml version="1.0" encoding="UTF-8" standalone="no"?>
<!DOCTYPE svg PUBLIC "-//W3C//DTD SVG 1.1//EN"
 "http://www.w3.org/Graphics/SVG/1.1/DTD/svg11.dtd">
<!-- Generated by graphviz version 15.1.0 (20260618.0150)
 -->
<!-- Title: memory_map Pages: 1 -->
<svg width="866pt" height="476pt"
 viewBox="0.00 0.00 866.00 476.00" xmlns="http://www.w3.org/2000/svg" xmlns:xlink="http://www.w3.org/1999/xlink">
<g id="graph0" class="graph" transform="scale(1 1) rotate(0) translate(4 471.5)">
<title>memory_map</title>
<polygon fill="white" stroke="none" points="-4,4 -4,-471.5 861.5,-471.5 861.5,4 -4,4"/>
<text xml:space="preserve" text-anchor="middle" x="428.75" y="-444.5" font-family="Times New Roman,serif" font-size="20.00">Current Memory and MMIO Map</text>
<!-- address_decode -->
<g id="node1" class="node">
<title>address_decode</title>
<path fill="#edf6ff" stroke="#555555" d="M319,-359.5C319,-359.5 479,-359.5 479,-359.5 485,-359.5 491,-365.5 491,-371.5 491,-371.5 491,-424.5 491,-424.5 491,-430.5 485,-436.5 479,-436.5 479,-436.5 319,-436.5 319,-436.5 313,-436.5 307,-430.5 307,-424.5 307,-424.5 307,-371.5 307,-371.5 307,-365.5 313,-359.5 319,-359.5"/>
<text xml:space="preserve" text-anchor="middle" x="399" y="-422.05" font-family="Consolas" font-size="11.00">mem_stage.sv address decode</text>
<polyline fill="none" stroke="#555555" points="307,-417.25 491,-417.25"/>
<text xml:space="preserve" text-anchor="middle" x="399" y="-402.8" font-family="Consolas" font-size="11.00">ram_sel: addr[31:28] == 0x0</text>
<polyline fill="none" stroke="#555555" points="307,-398 491,-398"/>
<text xml:space="preserve" text-anchor="middle" x="399" y="-383.55" font-family="Consolas" font-size="11.00">uart_sel: addr[31:28] == 0x8</text>
<polyline fill="none" stroke="#555555" points="307,-378.75 491,-378.75"/>
<text xml:space="preserve" text-anchor="middle" x="399" y="-364.3" font-family="Consolas" font-size="11.00">perf_sel: addr[31:28] == 0xC</text>
</g>
<!-- internal_bus -->
<g id="node2" class="node">
<title>internal_bus</title>
<path fill="#fafafa" stroke="#999999" stroke-dasharray="5,2" d="M316,-265.5C316,-265.5 482,-265.5 482,-265.5 488,-265.5 494,-271.5 494,-277.5 494,-277.5 494,-292 494,-292 494,-298 488,-304 482,-304 482,-304 316,-304 316,-304 310,-304 304,-298 304,-292 304,-292 304,-277.5 304,-277.5 304,-271.5 310,-265.5 316,-265.5"/>
<text xml:space="preserve" text-anchor="middle" x="399" y="-289.55" font-family="Consolas" font-size="11.00">Internal bus boundary</text>
<polyline fill="none" stroke="#999999" stroke-dasharray="5,2" points="304,-284.75 494,-284.75"/>
<text xml:space="preserve" text-anchor="middle" x="399" y="-270.3" font-family="Consolas" font-size="11.00">direct MEM&#45;stage decode today</text>
</g>
<!-- address_decode&#45;&gt;internal_bus -->
<g id="edge1" class="edge">
<title>address_decode&#45;&gt;internal_bus</title>
<path fill="none" stroke="#555555" d="M399,-359.03C399,-359.03 399,-315.89 399,-315.89"/>
<polygon fill="#555555" stroke="#555555" points="402.5,-315.89 399,-305.89 395.5,-315.89 402.5,-315.89"/>
<text xml:space="preserve" text-anchor="middle" x="438.38" y="-327.5" font-family="Consolas" font-size="10.00">decode boundary</text>
</g>
<!-- data_mem -->
<g id="node3" class="node">
<title>data_mem</title>
<path fill="#f7f7f7" stroke="#555555" d="M12,-113.75C12,-113.75 184,-113.75 184,-113.75 190,-113.75 196,-119.75 196,-125.75 196,-125.75 196,-198 196,-198 196,-204 190,-210 184,-210 184,-210 12,-210 12,-210 6,-210 0,-204 0,-198 0,-198 0,-125.75 0,-125.75 0,-119.75 6,-113.75 12,-113.75"/>
<text xml:space="preserve" text-anchor="middle" x="98" y="-195.55" font-family="Consolas" font-size="11.00">0x00000000 region</text>
<polyline fill="none" stroke="#555555" points="0,-190.75 196,-190.75"/>
<text xml:space="preserve" text-anchor="middle" x="98" y="-176.3" font-family="Consolas" font-size="11.00">Data RAM</text>
<polyline fill="none" stroke="#555555" points="0,-171.5 196,-171.5"/>
<text xml:space="preserve" text-anchor="middle" x="98" y="-157.05" font-family="Consolas" font-size="11.00">word address: alu_result[11:2]</text>
<polyline fill="none" stroke="#555555" points="0,-152.25 196,-152.25"/>
<text xml:space="preserve" text-anchor="middle" x="98" y="-137.8" font-family="Consolas" font-size="11.00">byte enables for SB/SH/SW</text>
<polyline fill="none" stroke="#555555" points="0,-133 196,-133"/>
<text xml:space="preserve" text-anchor="middle" x="98" y="-118.55" font-family="Consolas" font-size="11.00">LB/LH/LBU/LHU/LW formatting</text>
</g>
<!-- internal_bus&#45;&gt;data_mem -->
<g id="edge2" class="edge">
<title>internal_bus&#45;&gt;data_mem</title>
<path fill="none" stroke="#555555" d="M351.5,-265.13C351.5,-242.1 351.5,-207 351.5,-207 351.5,-207 207.89,-207 207.89,-207"/>
<polygon fill="#555555" stroke="#555555" points="207.89,-203.5 197.89,-207 207.89,-210.5 207.89,-203.5"/>
<text xml:space="preserve" text-anchor="middle" x="124.25" y="-233.5" font-family="Consolas" font-size="10.00">RAM access</text>
</g>
<!-- uart -->
<g id="node4" class="node">
<title>uart</title>
<path fill="#fff4e6" stroke="#555555" d="M244,-123.38C244,-123.38 554,-123.38 554,-123.38 560,-123.38 566,-129.38 566,-135.38 566,-135.38 566,-188.38 566,-188.38 566,-194.38 560,-200.38 554,-200.38 554,-200.38 244,-200.38 244,-200.38 238,-200.38 232,-194.38 232,-188.38 232,-188.38 232,-135.38 232,-135.38 232,-129.38 238,-123.38 244,-123.38"/>
<text xml:space="preserve" text-anchor="middle" x="399" y="-185.93" font-family="Consolas" font-size="11.00">0x80000000 region</text>
<polyline fill="none" stroke="#555555" points="232,-181.12 566,-181.12"/>
<text xml:space="preserve" text-anchor="middle" x="399" y="-166.68" font-family="Consolas" font-size="11.00">0x80000000 UART_STATUS: bit0 tx_busy, bit1 rx_valid</text>
<polyline fill="none" stroke="#555555" points="232,-161.88 566,-161.88"/>
<text xml:space="preserve" text-anchor="middle" x="399" y="-147.43" font-family="Consolas" font-size="11.00">0x80000004 UART_TX_DATA: write byte[7:0]</text>
<polyline fill="none" stroke="#555555" points="232,-142.62 566,-142.62"/>
<text xml:space="preserve" text-anchor="middle" x="399" y="-128.18" font-family="Consolas" font-size="11.00">0x80000008 UART_RX_DATA: read byte[7:0], clears valid</text>
</g>
<!-- internal_bus&#45;&gt;uart -->
<g id="edge3" class="edge">
<title>internal_bus&#45;&gt;uart</title>
<path fill="none" stroke="#555555" d="M399,-265.01C399,-265.01 399,-212.18 399,-212.18"/>
<polygon fill="#555555" stroke="#555555" points="402.5,-212.18 399,-202.18 395.5,-212.18 402.5,-212.18"/>
<text xml:space="preserve" text-anchor="middle" x="422.62" y="-233.5" font-family="Consolas" font-size="10.00">UART MMIO</text>
</g>
<!-- perf -->
<g id="node5" class="node">
<title>perf</title>
<path fill="#fff4e6" stroke="#555555" d="M614,-113.75C614,-113.75 786,-113.75 786,-113.75 792,-113.75 798,-119.75 798,-125.75 798,-125.75 798,-198 798,-198 798,-204 792,-210 786,-210 786,-210 614,-210 614,-210 608,-210 602,-204 602,-198 602,-198 602,-125.75 602,-125.75 602,-119.75 608,-113.75 614,-113.75"/>
<text xml:space="preserve" text-anchor="middle" x="700" y="-195.55" font-family="Consolas" font-size="11.00">0xC0000000 region</text>
<polyline fill="none" stroke="#555555" points="602,-190.75 798,-190.75"/>
<text xml:space="preserve" text-anchor="middle" x="700" y="-176.3" font-family="Consolas" font-size="11.00">0xC0000000 cycle counter</text>
<polyline fill="none" stroke="#555555" points="602,-171.5 798,-171.5"/>
<text xml:space="preserve" text-anchor="middle" x="700" y="-157.05" font-family="Consolas" font-size="11.00">0xC0000004 instruction counter</text>
<polyline fill="none" stroke="#555555" points="602,-152.25 798,-152.25"/>
<text xml:space="preserve" text-anchor="middle" x="700" y="-137.8" font-family="Consolas" font-size="11.00">0xC0000008 stall counter</text>
<polyline fill="none" stroke="#555555" points="602,-133 798,-133"/>
<text xml:space="preserve" text-anchor="middle" x="700" y="-118.55" font-family="Consolas" font-size="11.00">0xC000000C flush counter</text>
</g>
<!-- internal_bus&#45;&gt;perf -->
<g id="edge4" class="edge">
<title>internal_bus&#45;&gt;perf</title>
<path fill="none" stroke="#555555" d="M446.5,-265.2C446.5,-241.3 446.5,-204 446.5,-204 446.5,-204 590.11,-204 590.11,-204"/>
<polygon fill="#555555" stroke="#555555" points="590.11,-207.5 600.11,-204 590.11,-200.5 590.11,-207.5"/>
<text xml:space="preserve" text-anchor="middle" x="642.88" y="-233.5" font-family="Consolas" font-size="10.00">read&#45;only perf MMIO</text>
</g>
<!-- timer_debug -->
<g id="node6" class="node">
<title>timer_debug</title>
<path fill="#fafafa" stroke="#999999" stroke-dasharray="5,2" d="M566,-0.5C566,-0.5 834,-0.5 834,-0.5 840,-0.5 846,-6.5 846,-12.5 846,-12.5 846,-46.25 846,-46.25 846,-52.25 840,-58.25 834,-58.25 834,-58.25 566,-58.25 566,-58.25 560,-58.25 554,-52.25 554,-46.25 554,-46.25 554,-12.5 554,-12.5 554,-6.5 560,-0.5 566,-0.5"/>
<text xml:space="preserve" text-anchor="middle" x="700" y="-43.8" font-family="Consolas" font-size="11.00">Planned timer/debug MMIO</text>
<polyline fill="none" stroke="#999999" stroke-dasharray="5,2" points="554,-39 846,-39"/>
<text xml:space="preserve" text-anchor="middle" x="700" y="-24.55" font-family="Consolas" font-size="11.00">0xC0000010+ timer/debug registers from roadmap</text>
<polyline fill="none" stroke="#999999" stroke-dasharray="5,2" points="554,-19.75 846,-19.75"/>
<text xml:space="preserve" text-anchor="middle" x="700" y="-5.3" font-family="Consolas" font-size="11.00">not implemented yet</text>
</g>
<!-- perf&#45;&gt;timer_debug -->
<g id="edge5" class="edge">
<title>perf&#45;&gt;timer_debug</title>
<path fill="none" stroke="#555555" stroke-dasharray="5,2" d="M700,-113.29C700,-113.29 700,-70.2 700,-70.2"/>
<polygon fill="#555555" stroke="#555555" points="703.5,-70.2 700,-60.2 696.5,-70.2 703.5,-70.2"/>
<text xml:space="preserve" text-anchor="middle" x="778.75" y="-81.75" font-family="Consolas" font-size="10.00">nearby future/peripheral space</text>
</g>
</g>
</svg>
