<?xml version="1.0" encoding="UTF-8" standalone="no"?>
<!DOCTYPE svg PUBLIC "-//W3C//DTD SVG 1.1//EN"
 "http://www.w3.org/Graphics/SVG/1.1/DTD/svg11.dtd">
<!-- Generated by graphviz version 15.1.0 (20260618.0150)
 -->
<!-- Title: multicore Pages: 1 -->
<svg width="1172pt" height="357pt"
 viewBox="0.00 0.00 1172.00 357.00" xmlns="http://www.w3.org/2000/svg" xmlns:xlink="http://www.w3.org/1999/xlink">
<g id="graph0" class="graph" transform="scale(1 1) rotate(0) translate(4 352.5)">
<title>multicore</title>
<polygon fill="white" stroke="none" points="-4,4 -4,-352.5 1167.75,-352.5 1167.75,4 -4,4"/>
<text xml:space="preserve" text-anchor="middle" x="581.88" y="-325.5" font-family="Times New Roman,serif" font-size="20.00">Planned Dual&#45;Core Extension (Not Implemented Yet)</text>
<!-- core0 -->
<g id="node1" class="node">
<title>core0</title>
<path fill="#fafafa" stroke="#777777" stroke-dasharray="5,2" d="M142,-229.88C142,-229.88 12,-229.88 12,-229.88 6,-229.88 0,-223.88 0,-217.88 0,-217.88 0,-200.12 0,-200.12 0,-194.12 6,-188.12 12,-188.12 12,-188.12 142,-188.12 142,-188.12 148,-188.12 154,-194.12 154,-200.12 154,-200.12 154,-217.88 154,-217.88 154,-223.88 148,-229.88 142,-229.88"/>
<text xml:space="preserve" text-anchor="middle" x="77" y="-215.43" font-family="Consolas" font-size="11.00">Core 0</text>
<text xml:space="preserve" text-anchor="middle" x="77" y="-204.18" font-family="Consolas" font-size="11.00">5&#45;stage scalar pipeline</text>
<text xml:space="preserve" text-anchor="middle" x="77" y="-192.93" font-family="Consolas" font-size="11.00">1 software thread</text>
</g>
<!-- arbiter -->
<g id="node3" class="node">
<title>arbiter</title>
<path fill="#fafafa" stroke="#777777" stroke-dasharray="5,2" d="M485.75,-179.88C485.75,-179.88 337.75,-179.88 337.75,-179.88 331.75,-179.88 325.75,-173.88 325.75,-167.88 325.75,-167.88 325.75,-150.12 325.75,-150.12 325.75,-144.12 331.75,-138.12 337.75,-138.12 337.75,-138.12 485.75,-138.12 485.75,-138.12 491.75,-138.12 497.75,-144.12 497.75,-150.12 497.75,-150.12 497.75,-167.88 497.75,-167.88 497.75,-173.88 491.75,-179.88 485.75,-179.88"/>
<text xml:space="preserve" text-anchor="middle" x="411.75" y="-165.43" font-family="Consolas" font-size="11.00">Simple round&#45;robin arbiter</text>
<text xml:space="preserve" text-anchor="middle" x="411.75" y="-154.18" font-family="Consolas" font-size="11.00">no caches</text>
<text xml:space="preserve" text-anchor="middle" x="411.75" y="-142.93" font-family="Consolas" font-size="11.00">no coherency</text>
</g>
<!-- core0&#45;&gt;arbiter -->
<g id="edge1" class="edge">
<title>core0&#45;&gt;arbiter</title>
<path fill="none" stroke="#777777" stroke-dasharray="5,2" d="M51.75,-187.73C51.75,-176.89 51.75,-165.96 51.75,-165.96 51.75,-165.96 314.01,-165.96 314.01,-165.96"/>
<polygon fill="#777777" stroke="#777777" points="314.01,-169.46 324.01,-165.96 314.01,-162.46 314.01,-169.46"/>
<text xml:space="preserve" text-anchor="middle" x="239.88" y="-210" font-family="Consolas" font-size="10.00">memory/MMIO request</text>
</g>
<!-- core1 -->
<g id="node2" class="node">
<title>core1</title>
<path fill="#fafafa" stroke="#777777" stroke-dasharray="5,2" d="M142,-129.88C142,-129.88 12,-129.88 12,-129.88 6,-129.88 0,-123.88 0,-117.88 0,-117.88 0,-100.12 0,-100.12 0,-94.12 6,-88.12 12,-88.12 12,-88.12 142,-88.12 142,-88.12 148,-88.12 154,-94.12 154,-100.12 154,-100.12 154,-117.88 154,-117.88 154,-123.88 148,-129.88 142,-129.88"/>
<text xml:space="preserve" text-anchor="middle" x="77" y="-115.42" font-family="Consolas" font-size="11.00">Core 1</text>
<text xml:space="preserve" text-anchor="middle" x="77" y="-104.17" font-family="Consolas" font-size="11.00">5&#45;stage scalar pipeline</text>
<text xml:space="preserve" text-anchor="middle" x="77" y="-92.92" font-family="Consolas" font-size="11.00">1 software thread</text>
</g>
<!-- core1&#45;&gt;arbiter -->
<g id="edge2" class="edge">
<title>core1&#45;&gt;arbiter</title>
<path fill="none" stroke="#777777" stroke-dasharray="5,2" d="M102.75,-130.27C102.75,-141.11 102.75,-152.04 102.75,-152.04 102.75,-152.04 313.75,-152.04 313.75,-152.04"/>
<polygon fill="#777777" stroke="#777777" points="313.75,-155.54 323.75,-152.04 313.75,-148.54 313.75,-155.54"/>
<text xml:space="preserve" text-anchor="middle" x="239.88" y="-110" font-family="Consolas" font-size="10.00">memory/MMIO request</text>
</g>
<!-- shared_bram -->
<g id="node4" class="node">
<title>shared_bram</title>
<path fill="#fafafa" stroke="#777777" stroke-dasharray="5,2" d="M748.75,-318C748.75,-318 606.75,-318 606.75,-318 600.75,-318 594.75,-312 594.75,-306 594.75,-306 594.75,-294 594.75,-294 594.75,-288 600.75,-282 606.75,-282 606.75,-282 748.75,-282 748.75,-282 754.75,-282 760.75,-288 760.75,-294 760.75,-294 760.75,-306 760.75,-306 760.75,-312 754.75,-318 748.75,-318"/>
<text xml:space="preserve" text-anchor="middle" x="677.75" y="-300.8" font-family="Consolas" font-size="11.00">Shared BRAM / data memory</text>
<text xml:space="preserve" text-anchor="middle" x="677.75" y="-289.55" font-family="Consolas" font-size="11.00">or mailbox window</text>
</g>
<!-- arbiter&#45;&gt;shared_bram -->
<g id="edge3" class="edge">
<title>arbiter&#45;&gt;shared_bram</title>
<path fill="none" stroke="#777777" stroke-dasharray="5,2" d="M498.13,-171.53C547.13,-171.53 598.75,-171.53 598.75,-171.53 598.75,-171.53 598.75,-270.08 598.75,-270.08"/>
<polygon fill="#777777" stroke="#777777" points="595.25,-270.08 598.75,-280.08 602.25,-270.08 595.25,-270.08"/>
</g>
<!-- mailbox -->
<g id="node5" class="node">
<title>mailbox</title>
<path fill="#fafafa" stroke="#777777" stroke-dasharray="5,2" d="M736.75,-224C736.75,-224 618.75,-224 618.75,-224 612.75,-224 606.75,-218 606.75,-212 606.75,-212 606.75,-200 606.75,-200 606.75,-194 612.75,-188 618.75,-188 618.75,-188 736.75,-188 736.75,-188 742.75,-188 748.75,-194 748.75,-200 748.75,-200 748.75,-212 748.75,-212 748.75,-218 742.75,-224 736.75,-224"/>
<text xml:space="preserve" text-anchor="middle" x="677.75" y="-206.8" font-family="Consolas" font-size="11.00">Mailbox registers</text>
<text xml:space="preserve" text-anchor="middle" x="677.75" y="-195.55" font-family="Consolas" font-size="11.00">core&#45;to&#45;core messages</text>
</g>
<!-- arbiter&#45;&gt;mailbox -->
<g id="edge4" class="edge">
<title>arbiter&#45;&gt;mailbox</title>
<path fill="none" stroke="#777777" stroke-dasharray="5,2" d="M498.09,-163.18C567.59,-163.18 653.75,-163.18 653.75,-163.18 653.75,-163.18 653.75,-176.08 653.75,-176.08"/>
<polygon fill="#777777" stroke="#777777" points="650.25,-176.08 653.75,-186.08 657.25,-176.08 650.25,-176.08"/>
</g>
<!-- shared_uart -->
<g id="node6" class="node">
<title>shared_uart</title>
<path fill="#fafafa" stroke="#777777" stroke-dasharray="5,2" d="M739.75,-130C739.75,-130 615.75,-130 615.75,-130 609.75,-130 603.75,-124 603.75,-118 603.75,-118 603.75,-106 603.75,-106 603.75,-100 609.75,-94 615.75,-94 615.75,-94 739.75,-94 739.75,-94 745.75,-94 751.75,-100 751.75,-106 751.75,-106 751.75,-118 751.75,-118 751.75,-124 745.75,-130 739.75,-130"/>
<text xml:space="preserve" text-anchor="middle" x="677.75" y="-112.8" font-family="Consolas" font-size="11.00">Shared UART MMIO</text>
<text xml:space="preserve" text-anchor="middle" x="677.75" y="-101.55" font-family="Consolas" font-size="11.00">single terminal output</text>
</g>
<!-- arbiter&#45;&gt;shared_uart -->
<g id="edge5" class="edge">
<title>arbiter&#45;&gt;shared_uart</title>
<path fill="none" stroke="#777777" stroke-dasharray="5,2" d="M497.97,-154.82C583.46,-154.82 701.75,-154.82 701.75,-154.82 701.75,-154.82 701.75,-141.92 701.75,-141.92"/>
<polygon fill="#777777" stroke="#777777" points="705.25,-141.92 701.75,-131.92 698.25,-141.92 705.25,-141.92"/>
</g>
<!-- shared_timer -->
<g id="node7" class="node">
<title>shared_timer</title>
<path fill="#fafafa" stroke="#777777" stroke-dasharray="5,2" d="M772.75,-36C772.75,-36 582.75,-36 582.75,-36 576.75,-36 570.75,-30 570.75,-24 570.75,-24 570.75,-12 570.75,-12 570.75,-6 576.75,0 582.75,0 582.75,0 772.75,0 772.75,0 778.75,0 784.75,-6 784.75,-12 784.75,-12 784.75,-24 784.75,-24 784.75,-30 778.75,-36 772.75,-36"/>
<text xml:space="preserve" text-anchor="middle" x="677.75" y="-18.8" font-family="Consolas" font-size="11.00">Shared timer / perf registers</text>
<text xml:space="preserve" text-anchor="middle" x="677.75" y="-7.55" font-family="Consolas" font-size="11.00">requires trap/timer support first</text>
</g>
<!-- arbiter&#45;&gt;shared_timer -->
<g id="edge6" class="edge">
<title>arbiter&#45;&gt;shared_timer</title>
<path fill="none" stroke="#777777" stroke-dasharray="5,2" d="M498,-146.47C540.5,-146.47 582.75,-146.47 582.75,-146.47 582.75,-146.47 582.75,-47.92 582.75,-47.92"/>
<polygon fill="#777777" stroke="#777777" points="586.25,-47.92 582.75,-37.92 579.25,-47.92 586.25,-47.92"/>
</g>
<!-- software -->
<g id="node8" class="node">
<title>software</title>
<path fill="#fafafa" stroke="#777777" stroke-dasharray="5,2" d="M1151.75,-130C1151.75,-130 931.75,-130 931.75,-130 925.75,-130 919.75,-124 919.75,-118 919.75,-118 919.75,-106 919.75,-106 919.75,-100 925.75,-94 931.75,-94 931.75,-94 1151.75,-94 1151.75,-94 1157.75,-94 1163.75,-100 1163.75,-106 1163.75,-106 1163.75,-118 1163.75,-118 1163.75,-124 1157.75,-130 1151.75,-130"/>
<text xml:space="preserve" text-anchor="middle" x="1041.75" y="-112.8" font-family="Consolas" font-size="11.00">Bare&#45;metal software scheduling</text>
<text xml:space="preserve" text-anchor="middle" x="1041.75" y="-101.55" font-family="Consolas" font-size="11.00">planned only after monitor/traps/timer</text>
</g>
<!-- mailbox&#45;&gt;software -->
<g id="edge8" class="edge">
<title>mailbox&#45;&gt;software</title>
<path fill="none" stroke="#777777" stroke-dasharray="5,2" d="M749.23,-206C855.24,-206 1041.75,-206 1041.75,-206 1041.75,-206 1041.75,-141.64 1041.75,-141.64"/>
<polygon fill="#777777" stroke="#777777" points="1045.25,-141.64 1041.75,-131.64 1038.25,-141.64 1045.25,-141.64"/>
<text xml:space="preserve" text-anchor="middle" x="852.25" y="-178" font-family="Consolas" font-size="10.00">coordination</text>
</g>
<!-- shared_timer&#45;&gt;software -->
<g id="edge7" class="edge">
<title>shared_timer&#45;&gt;software</title>
<path fill="none" stroke="#777777" stroke-dasharray="5,2" d="M772.75,-36.12C772.75,-63.44 772.75,-112 772.75,-112 772.75,-112 907.94,-112 907.94,-112"/>
<polygon fill="#777777" stroke="#777777" points="907.94,-115.5 917.94,-112 907.94,-108.5 907.94,-115.5"/>
<text xml:space="preserve" text-anchor="middle" x="852.25" y="-76" font-family="Consolas" font-size="10.00">timer tick</text>
</g>
</g>
</svg>
