<?xml version="1.0" encoding="UTF-8" standalone="no"?>
<!DOCTYPE svg PUBLIC "-//W3C//DTD SVG 1.1//EN"
 "http://www.w3.org/Graphics/SVG/1.1/DTD/svg11.dtd">
<!-- Generated by graphviz version 15.1.0 (20260618.0150)
 -->
<!-- Title: pipeline Pages: 1 -->
<svg width="2758pt" height="496pt"
 viewBox="0.00 0.00 2758.00 496.00" xmlns="http://www.w3.org/2000/svg" xmlns:xlink="http://www.w3.org/1999/xlink">
<g id="graph0" class="graph" transform="scale(1 1) rotate(0) translate(4 492)">
<title>pipeline</title>
<polygon fill="white" stroke="none" points="-4,4 -4,-492 2754.25,-492 2754.25,4 -4,4"/>
<text xml:space="preserve" text-anchor="middle" x="1375.12" y="-465" font-family="Times New Roman,serif" font-size="20.00">Current 5&#45;Stage Pipeline Architecture</text>
<g id="clust1" class="cluster">
<title>cluster_cpu</title>
<polygon fill="none" stroke="#bbbbbb" points="214.25,-196 214.25,-395 2742.25,-395 2742.25,-196 214.25,-196"/>
<text xml:space="preserve" text-anchor="middle" x="1478.25" y="-372" font-family="Times New Roman,serif" font-size="20.00">top.sv CPU core</text>
</g>
<!-- if_stage -->
<g id="node1" class="node">
<title>if_stage</title>
<path fill="#f7f7f7" stroke="#555555" d="M400.25,-341.88C400.25,-341.88 234.25,-341.88 234.25,-341.88 228.25,-341.88 222.25,-335.88 222.25,-329.88 222.25,-329.88 222.25,-312.12 222.25,-312.12 222.25,-306.12 228.25,-300.12 234.25,-300.12 234.25,-300.12 400.25,-300.12 400.25,-300.12 406.25,-300.12 412.25,-306.12 412.25,-312.12 412.25,-312.12 412.25,-329.88 412.25,-329.88 412.25,-335.88 406.25,-341.88 400.25,-341.88"/>
<text xml:space="preserve" text-anchor="middle" x="317.25" y="-327.43" font-family="Consolas" font-size="11.00">IF</text>
<text xml:space="preserve" text-anchor="middle" x="317.25" y="-316.18" font-family="Consolas" font-size="11.00">if_stage.sv</text>
<text xml:space="preserve" text-anchor="middle" x="317.25" y="-304.93" font-family="Consolas" font-size="11.00">PC update + instruction fetch</text>
</g>
<!-- if_id -->
<g id="node2" class="node">
<title>if_id</title>
<path fill="#f7f7f7" stroke="#555555" d="M537.25,-251C537.25,-251 491.25,-251 491.25,-251 485.25,-251 479.25,-245 479.25,-239 479.25,-239 479.25,-227 479.25,-227 479.25,-221 485.25,-215 491.25,-215 491.25,-215 537.25,-215 537.25,-215 543.25,-215 549.25,-221 549.25,-227 549.25,-227 549.25,-239 549.25,-239 549.25,-245 543.25,-251 537.25,-251"/>
<text xml:space="preserve" text-anchor="middle" x="514.25" y="-233.8" font-family="Consolas" font-size="11.00">IF/ID</text>
<text xml:space="preserve" text-anchor="middle" x="514.25" y="-222.55" font-family="Consolas" font-size="11.00">if_id_reg</text>
</g>
<!-- if_stage&#45;&gt;if_id -->
<g id="edge1" class="edge">
<title>if_stage&#45;&gt;if_id</title>
<path fill="none" stroke="#555555" d="M412.58,-314.04C462.86,-314.04 514.25,-314.04 514.25,-314.04 514.25,-314.04 514.25,-262.9 514.25,-262.9"/>
<polygon fill="#555555" stroke="#555555" points="517.75,-262.9 514.25,-252.9 510.75,-262.9 517.75,-262.9"/>
</g>
<!-- id_stage -->
<g id="node3" class="node">
<title>id_stage</title>
<path fill="#f7f7f7" stroke="#555555" d="M861.5,-245.88C861.5,-245.88 653.5,-245.88 653.5,-245.88 647.5,-245.88 641.5,-239.88 641.5,-233.88 641.5,-233.88 641.5,-216.12 641.5,-216.12 641.5,-210.12 647.5,-204.12 653.5,-204.12 653.5,-204.12 861.5,-204.12 861.5,-204.12 867.5,-204.12 873.5,-210.12 873.5,-216.12 873.5,-216.12 873.5,-233.88 873.5,-233.88 873.5,-239.88 867.5,-245.88 861.5,-245.88"/>
<text xml:space="preserve" text-anchor="middle" x="757.5" y="-231.43" font-family="Consolas" font-size="11.00">ID</text>
<text xml:space="preserve" text-anchor="middle" x="757.5" y="-220.18" font-family="Consolas" font-size="11.00">id_stage.sv</text>
<text xml:space="preserve" text-anchor="middle" x="757.5" y="-208.93" font-family="Consolas" font-size="11.00">control + register read + immediates</text>
</g>
<!-- if_id&#45;&gt;id_stage -->
<g id="edge2" class="edge">
<title>if_id&#45;&gt;id_stage</title>
<path fill="none" stroke="#555555" d="M549.62,-230.44C549.62,-230.44 629.75,-230.44 629.75,-230.44"/>
<polygon fill="#555555" stroke="#555555" points="629.75,-233.94 639.75,-230.44 629.75,-226.94 629.75,-233.94"/>
</g>
<!-- id_ex -->
<g id="node4" class="node">
<title>id_ex</title>
<path fill="#f7f7f7" stroke="#555555" d="M1059.75,-243C1059.75,-243 1013.75,-243 1013.75,-243 1007.75,-243 1001.75,-237 1001.75,-231 1001.75,-231 1001.75,-219 1001.75,-219 1001.75,-213 1007.75,-207 1013.75,-207 1013.75,-207 1059.75,-207 1059.75,-207 1065.75,-207 1071.75,-213 1071.75,-219 1071.75,-219 1071.75,-231 1071.75,-231 1071.75,-237 1065.75,-243 1059.75,-243"/>
<text xml:space="preserve" text-anchor="middle" x="1036.75" y="-225.8" font-family="Consolas" font-size="11.00">ID/EX</text>
<text xml:space="preserve" text-anchor="middle" x="1036.75" y="-214.55" font-family="Consolas" font-size="11.00">id_ex_reg</text>
</g>
<!-- id_stage&#45;&gt;id_ex -->
<g id="edge3" class="edge">
<title>id_stage&#45;&gt;id_ex</title>
<path fill="none" stroke="#555555" d="M873.91,-225C873.91,-225 989.92,-225 989.92,-225"/>
<polygon fill="#555555" stroke="#555555" points="989.92,-228.5 999.92,-225 989.92,-221.5 989.92,-228.5"/>
</g>
<!-- ex_stage -->
<g id="node5" class="node">
<title>ex_stage</title>
<path fill="#f7f7f7" stroke="#555555" d="M1433.5,-245.88C1433.5,-245.88 1285.5,-245.88 1285.5,-245.88 1279.5,-245.88 1273.5,-239.88 1273.5,-233.88 1273.5,-233.88 1273.5,-216.12 1273.5,-216.12 1273.5,-210.12 1279.5,-204.12 1285.5,-204.12 1285.5,-204.12 1433.5,-204.12 1433.5,-204.12 1439.5,-204.12 1445.5,-210.12 1445.5,-216.12 1445.5,-216.12 1445.5,-233.88 1445.5,-233.88 1445.5,-239.88 1439.5,-245.88 1433.5,-245.88"/>
<text xml:space="preserve" text-anchor="middle" x="1359.5" y="-231.43" font-family="Consolas" font-size="11.00">EX</text>
<text xml:space="preserve" text-anchor="middle" x="1359.5" y="-220.18" font-family="Consolas" font-size="11.00">ex_stage.sv</text>
<text xml:space="preserve" text-anchor="middle" x="1359.5" y="-208.93" font-family="Consolas" font-size="11.00">ALU + branch/jump decision</text>
</g>
<!-- id_ex&#45;&gt;ex_stage -->
<g id="edge4" class="edge">
<title>id_ex&#45;&gt;ex_stage</title>
<path fill="none" stroke="#555555" d="M1072.21,-231C1072.21,-231 1261.6,-231 1261.6,-231"/>
<polygon fill="#555555" stroke="#555555" points="1261.6,-234.5 1271.6,-231 1261.6,-227.5 1261.6,-234.5"/>
</g>
<!-- ex_stage&#45;&gt;if_stage -->
<g id="edge22" class="edge">
<title>ex_stage&#45;&gt;if_stage</title>
<path fill="none" stroke="#555555" d="M1359.25,-246.33C1359.25,-276.49 1359.25,-327.96 1359.25,-327.96 1359.25,-327.96 424,-327.96 424,-327.96"/>
<polygon fill="#555555" stroke="#555555" points="424,-324.46 414,-327.96 424,-331.46 424,-324.46"/>
<text xml:space="preserve" text-anchor="middle" x="757.5" y="-347" font-family="Consolas" font-size="10.00">branch_target</text>
</g>
<!-- ex_mem -->
<g id="node6" class="node">
<title>ex_mem</title>
<path fill="#f7f7f7" stroke="#555555" d="M1648.5,-243C1648.5,-243 1596.5,-243 1596.5,-243 1590.5,-243 1584.5,-237 1584.5,-231 1584.5,-231 1584.5,-219 1584.5,-219 1584.5,-213 1590.5,-207 1596.5,-207 1596.5,-207 1648.5,-207 1648.5,-207 1654.5,-207 1660.5,-213 1660.5,-219 1660.5,-219 1660.5,-231 1660.5,-231 1660.5,-237 1654.5,-243 1648.5,-243"/>
<text xml:space="preserve" text-anchor="middle" x="1622.5" y="-225.8" font-family="Consolas" font-size="11.00">EX/MEM</text>
<text xml:space="preserve" text-anchor="middle" x="1622.5" y="-214.55" font-family="Consolas" font-size="11.00">ex_mem_reg</text>
</g>
<!-- ex_stage&#45;&gt;ex_mem -->
<g id="edge5" class="edge">
<title>ex_stage&#45;&gt;ex_mem</title>
<path fill="none" stroke="#555555" d="M1445.98,-225C1445.98,-225 1572.61,-225 1572.61,-225"/>
<polygon fill="#555555" stroke="#555555" points="1572.61,-228.5 1582.61,-225 1572.61,-221.5 1572.61,-228.5"/>
</g>
<!-- flush_ctl -->
<g id="node17" class="node">
<title>flush_ctl</title>
<path fill="#f1f8e9" stroke="#555555" d="M804.5,-154C804.5,-154 710.5,-154 710.5,-154 704.5,-154 698.5,-148 698.5,-142 698.5,-142 698.5,-130 698.5,-130 698.5,-124 704.5,-118 710.5,-118 710.5,-118 804.5,-118 804.5,-118 810.5,-118 816.5,-124 816.5,-130 816.5,-130 816.5,-142 816.5,-142 816.5,-148 810.5,-154 804.5,-154"/>
<text xml:space="preserve" text-anchor="middle" x="757.5" y="-136.8" font-family="Consolas" font-size="11.00">Branch/jump flush</text>
<text xml:space="preserve" text-anchor="middle" x="757.5" y="-125.55" font-family="Consolas" font-size="11.00">flush = pc_sel</text>
</g>
<!-- ex_stage&#45;&gt;flush_ctl -->
<g id="edge21" class="edge">
<title>ex_stage&#45;&gt;flush_ctl</title>
<path fill="none" stroke="#555555" d="M1359.25,-203.9C1359.25,-176.46 1359.25,-132 1359.25,-132 1359.25,-132 828.36,-132 828.36,-132"/>
<polygon fill="#555555" stroke="#555555" points="828.36,-128.5 818.36,-132 828.36,-135.5 828.36,-128.5"/>
<text xml:space="preserve" text-anchor="middle" x="1036.75" y="-137" font-family="Consolas" font-size="10.00">pc_sel</text>
</g>
<!-- mem_stage -->
<g id="node7" class="node">
<title>mem_stage</title>
<path fill="#f7f7f7" stroke="#555555" d="M2053.75,-245.88C2053.75,-245.88 1899.75,-245.88 1899.75,-245.88 1893.75,-245.88 1887.75,-239.88 1887.75,-233.88 1887.75,-233.88 1887.75,-216.12 1887.75,-216.12 1887.75,-210.12 1893.75,-204.12 1899.75,-204.12 1899.75,-204.12 2053.75,-204.12 2053.75,-204.12 2059.75,-204.12 2065.75,-210.12 2065.75,-216.12 2065.75,-216.12 2065.75,-233.88 2065.75,-233.88 2065.75,-239.88 2059.75,-245.88 2053.75,-245.88"/>
<text xml:space="preserve" text-anchor="middle" x="1976.75" y="-231.43" font-family="Consolas" font-size="11.00">MEM</text>
<text xml:space="preserve" text-anchor="middle" x="1976.75" y="-220.18" font-family="Consolas" font-size="11.00">mem_stage.sv</text>
<text xml:space="preserve" text-anchor="middle" x="1976.75" y="-208.93" font-family="Consolas" font-size="11.00">RAM + UART MMIO + perf MMIO</text>
</g>
<!-- ex_mem&#45;&gt;mem_stage -->
<g id="edge6" class="edge">
<title>ex_mem&#45;&gt;mem_stage</title>
<path fill="none" stroke="#555555" d="M1660.75,-231C1660.75,-231 1875.9,-231 1875.9,-231"/>
<polygon fill="#555555" stroke="#555555" points="1875.9,-234.5 1885.9,-231 1875.9,-227.5 1875.9,-234.5"/>
</g>
<!-- mem_wb -->
<g id="node8" class="node">
<title>mem_wb</title>
<path fill="#f7f7f7" stroke="#555555" d="M2309,-245C2309,-245 2257,-245 2257,-245 2251,-245 2245,-239 2245,-233 2245,-233 2245,-221 2245,-221 2245,-215 2251,-209 2257,-209 2257,-209 2309,-209 2309,-209 2315,-209 2321,-215 2321,-221 2321,-221 2321,-233 2321,-233 2321,-239 2315,-245 2309,-245"/>
<text xml:space="preserve" text-anchor="middle" x="2283" y="-227.8" font-family="Consolas" font-size="11.00">MEM/WB</text>
<text xml:space="preserve" text-anchor="middle" x="2283" y="-216.55" font-family="Consolas" font-size="11.00">mem_wb_reg</text>
</g>
<!-- mem_stage&#45;&gt;mem_wb -->
<g id="edge7" class="edge">
<title>mem_stage&#45;&gt;mem_wb</title>
<path fill="none" stroke="#555555" d="M2066.15,-233C2066.15,-233 2233.26,-233 2233.26,-233"/>
<polygon fill="#555555" stroke="#555555" points="2233.26,-236.5 2243.26,-233 2233.26,-229.5 2233.26,-236.5"/>
</g>
<!-- data_ram -->
<g id="node12" class="node">
<title>data_ram</title>
<path fill="#edf6ff" stroke="#555555" d="M2315,-158.88C2315,-158.88 2251,-158.88 2251,-158.88 2245,-158.88 2239,-152.88 2239,-146.88 2239,-146.88 2239,-129.12 2239,-129.12 2239,-123.12 2245,-117.12 2251,-117.12 2251,-117.12 2315,-117.12 2315,-117.12 2321,-117.12 2327,-123.12 2327,-129.12 2327,-129.12 2327,-146.88 2327,-146.88 2327,-152.88 2321,-158.88 2315,-158.88"/>
<text xml:space="preserve" text-anchor="middle" x="2283" y="-144.43" font-family="Consolas" font-size="11.00">Data RAM</text>
<text xml:space="preserve" text-anchor="middle" x="2283" y="-133.18" font-family="Consolas" font-size="11.00">data_mem.sv</text>
<text xml:space="preserve" text-anchor="middle" x="2283" y="-121.92" font-family="Consolas" font-size="11.00">byte enables</text>
</g>
<!-- mem_stage&#45;&gt;data_ram -->
<g id="edge12" class="edge">
<title>mem_stage&#45;&gt;data_ram</title>
<path fill="none" stroke="#555555" d="M1976.25,-203.74C1976.25,-178.27 1976.25,-139 1976.25,-139 1976.25,-139 2227.21,-139 2227.21,-139"/>
<polygon fill="#555555" stroke="#555555" points="2227.21,-142.5 2237.21,-139 2227.21,-135.5 2227.21,-142.5"/>
<text xml:space="preserve" text-anchor="middle" x="2143.38" y="-139" font-family="Consolas" font-size="10.00">load/store</text>
</g>
<!-- uart -->
<g id="node13" class="node">
<title>uart</title>
<path fill="#fff4e6" stroke="#555555" d="M2333,-66.88C2333,-66.88 2233,-66.88 2233,-66.88 2227,-66.88 2221,-60.88 2221,-54.88 2221,-54.88 2221,-37.12 2221,-37.12 2221,-31.12 2227,-25.12 2233,-25.12 2233,-25.12 2333,-25.12 2333,-25.12 2339,-25.12 2345,-31.12 2345,-37.12 2345,-37.12 2345,-54.88 2345,-54.88 2345,-60.88 2339,-66.88 2333,-66.88"/>
<text xml:space="preserve" text-anchor="middle" x="2283" y="-52.42" font-family="Consolas" font-size="11.00">UART MMIO</text>
<text xml:space="preserve" text-anchor="middle" x="2283" y="-41.17" font-family="Consolas" font-size="11.00">uart_peripheral.sv</text>
<text xml:space="preserve" text-anchor="middle" x="2283" y="-29.93" font-family="Consolas" font-size="11.00">uart_tx + uart_rx</text>
</g>
<!-- mem_stage&#45;&gt;uart -->
<g id="edge13" class="edge">
<title>mem_stage&#45;&gt;uart</title>
<path fill="none" stroke="#555555" d="M2066.12,-221C2139.11,-221 2230.25,-221 2230.25,-221 2230.25,-221 2230.25,-78.62 2230.25,-78.62"/>
<polygon fill="#555555" stroke="#555555" points="2233.75,-78.62 2230.25,-68.62 2226.75,-78.62 2233.75,-78.62"/>
<text xml:space="preserve" text-anchor="middle" x="2143.38" y="-47" font-family="Consolas" font-size="10.00">0x80000000 region</text>
</g>
<!-- wb_stage -->
<g id="node9" class="node">
<title>wb_stage</title>
<path fill="#f7f7f7" stroke="#555555" d="M2494,-245.88C2494,-245.88 2424,-245.88 2424,-245.88 2418,-245.88 2412,-239.88 2412,-233.88 2412,-233.88 2412,-216.12 2412,-216.12 2412,-210.12 2418,-204.12 2424,-204.12 2424,-204.12 2494,-204.12 2494,-204.12 2500,-204.12 2506,-210.12 2506,-216.12 2506,-216.12 2506,-233.88 2506,-233.88 2506,-239.88 2500,-245.88 2494,-245.88"/>
<text xml:space="preserve" text-anchor="middle" x="2459" y="-231.43" font-family="Consolas" font-size="11.00">WB</text>
<text xml:space="preserve" text-anchor="middle" x="2459" y="-220.18" font-family="Consolas" font-size="11.00">wb_stage.sv</text>
<text xml:space="preserve" text-anchor="middle" x="2459" y="-208.93" font-family="Consolas" font-size="11.00">writeback mux</text>
</g>
<!-- mem_wb&#45;&gt;wb_stage -->
<g id="edge8" class="edge">
<title>mem_wb&#45;&gt;wb_stage</title>
<path fill="none" stroke="#555555" d="M2321.19,-227C2321.19,-227 2400.27,-227 2400.27,-227"/>
<polygon fill="#555555" stroke="#555555" points="2400.27,-230.5 2410.27,-227 2400.27,-223.5 2400.27,-230.5"/>
</g>
<!-- reg_file -->
<g id="node10" class="node">
<title>reg_file</title>
<path fill="#f7f7f7" stroke="#555555" d="M2722.25,-300C2722.25,-300 2652.25,-300 2652.25,-300 2646.25,-300 2640.25,-294 2640.25,-288 2640.25,-288 2640.25,-276 2640.25,-276 2640.25,-270 2646.25,-264 2652.25,-264 2652.25,-264 2722.25,-264 2722.25,-264 2728.25,-264 2734.25,-270 2734.25,-276 2734.25,-276 2734.25,-288 2734.25,-288 2734.25,-294 2728.25,-300 2722.25,-300"/>
<text xml:space="preserve" text-anchor="middle" x="2687.25" y="-282.8" font-family="Consolas" font-size="11.00">Register file</text>
<text xml:space="preserve" text-anchor="middle" x="2687.25" y="-271.55" font-family="Consolas" font-size="11.00">reg_file.sv</text>
</g>
<!-- wb_stage&#45;&gt;reg_file -->
<g id="edge9" class="edge">
<title>wb_stage&#45;&gt;reg_file</title>
<path fill="none" stroke="#555555" d="M2459.25,-246.33C2459.25,-260.31 2459.25,-276 2459.25,-276 2459.25,-276 2628.49,-276 2628.49,-276"/>
<polygon fill="#555555" stroke="#555555" points="2628.49,-279.5 2638.49,-276 2628.49,-272.5 2628.49,-279.5"/>
<text xml:space="preserve" text-anchor="middle" x="2573.12" y="-268" font-family="Consolas" font-size="10.00">wb_write_data</text>
</g>
<!-- reg_file&#45;&gt;id_stage -->
<g id="edge10" class="edge">
<title>reg_file&#45;&gt;id_stage</title>
<path fill="none" stroke="#555555" d="M2640.02,-288C2344.05,-288 757.25,-288 757.25,-288 757.25,-288 757.25,-257.84 757.25,-257.84"/>
<polygon fill="#555555" stroke="#555555" points="760.75,-257.84 757.25,-247.84 753.75,-257.84 760.75,-257.84"/>
<text xml:space="preserve" text-anchor="middle" x="1810.12" y="-298" font-family="Consolas" font-size="10.00">rs1/rs2 data</text>
</g>
<!-- instr_rom -->
<g id="node11" class="node">
<title>instr_rom</title>
<path fill="#edf6ff" stroke="#555555" d="M118,-218.88C118,-218.88 12,-218.88 12,-218.88 6,-218.88 0,-212.88 0,-206.88 0,-206.88 0,-189.12 0,-189.12 0,-183.12 6,-177.12 12,-177.12 12,-177.12 118,-177.12 118,-177.12 124,-177.12 130,-183.12 130,-189.12 130,-189.12 130,-206.88 130,-206.88 130,-212.88 124,-218.88 118,-218.88"/>
<text xml:space="preserve" text-anchor="middle" x="65" y="-204.43" font-family="Consolas" font-size="11.00">Instruction ROM</text>
<text xml:space="preserve" text-anchor="middle" x="65" y="-193.18" font-family="Consolas" font-size="11.00">instr_mem.sv</text>
<text xml:space="preserve" text-anchor="middle" x="65" y="-181.93" font-family="Consolas" font-size="11.00">240 generated words</text>
</g>
<!-- instr_rom&#45;&gt;if_stage -->
<g id="edge11" class="edge">
<title>instr_rom&#45;&gt;if_stage</title>
<path fill="none" stroke="#555555" d="M125.25,-219.19C125.25,-252.9 125.25,-315 125.25,-315 125.25,-315 210.3,-315 210.3,-315"/>
<polygon fill="#555555" stroke="#555555" points="210.3,-318.5 220.3,-315 210.3,-311.5 210.3,-318.5"/>
<text xml:space="preserve" text-anchor="middle" x="176.12" y="-199" font-family="Consolas" font-size="10.00">instr</text>
</g>
<!-- perf -->
<g id="node14" class="node">
<title>perf</title>
<path fill="#fff4e6" stroke="#555555" d="M1720.5,-157C1720.5,-157 1524.5,-157 1524.5,-157 1518.5,-157 1512.5,-151 1512.5,-145 1512.5,-145 1512.5,-133 1512.5,-133 1512.5,-127 1518.5,-121 1524.5,-121 1524.5,-121 1720.5,-121 1720.5,-121 1726.5,-121 1732.5,-127 1732.5,-133 1732.5,-133 1732.5,-145 1732.5,-145 1732.5,-151 1726.5,-157 1720.5,-157"/>
<text xml:space="preserve" text-anchor="middle" x="1622.5" y="-139.8" font-family="Consolas" font-size="11.00">Performance counters</text>
<text xml:space="preserve" text-anchor="middle" x="1622.5" y="-128.55" font-family="Consolas" font-size="11.00">cycles / instrs / stalls / flushes</text>
</g>
<!-- perf&#45;&gt;mem_stage -->
<g id="edge14" class="edge">
<title>perf&#45;&gt;mem_stage</title>
<path fill="none" stroke="#555555" d="M1696.25,-157.15C1696.25,-180.76 1696.25,-219 1696.25,-219 1696.25,-219 1876.1,-219 1876.1,-219"/>
<polygon fill="#555555" stroke="#555555" points="1876.1,-222.5 1886.1,-219 1876.1,-215.5 1876.1,-222.5"/>
<text xml:space="preserve" text-anchor="middle" x="1810.12" y="-140" font-family="Consolas" font-size="10.00">0xC0000000 region</text>
</g>
<!-- hazard -->
<g id="node15" class="node">
<title>hazard</title>
<path fill="#f1f8e9" stroke="#555555" d="M109,-339C109,-339 21,-339 21,-339 15,-339 9,-333 9,-327 9,-327 9,-315 9,-315 9,-309 15,-303 21,-303 21,-303 109,-303 109,-303 115,-303 121,-309 121,-315 121,-315 121,-327 121,-327 121,-333 115,-339 109,-339"/>
<text xml:space="preserve" text-anchor="middle" x="65" y="-321.8" font-family="Consolas" font-size="11.00">Hazard detection</text>
<text xml:space="preserve" text-anchor="middle" x="65" y="-310.55" font-family="Consolas" font-size="11.00">load&#45;use stall</text>
</g>
<!-- hazard&#45;&gt;if_stage -->
<g id="edge15" class="edge">
<title>hazard&#45;&gt;if_stage</title>
<path fill="none" stroke="#555555" d="M121.3,-327C121.3,-327 210.48,-327 210.48,-327"/>
<polygon fill="#555555" stroke="#555555" points="210.48,-330.5 220.48,-327 210.48,-323.5 210.48,-330.5"/>
<text xml:space="preserve" text-anchor="middle" x="176.12" y="-322" font-family="Consolas" font-size="10.00">stall</text>
</g>
<!-- hazard&#45;&gt;if_id -->
<g id="edge16" class="edge">
<title>hazard&#45;&gt;if_id</title>
<path fill="none" stroke="#555555" d="M46.25,-302.75C46.25,-277.49 46.25,-234.94 46.25,-234.94 46.25,-234.94 467.56,-234.94 467.56,-234.94"/>
<polygon fill="#555555" stroke="#555555" points="467.56,-238.44 477.56,-234.94 467.56,-231.44 467.56,-238.44"/>
<text xml:space="preserve" text-anchor="middle" x="317.25" y="-241" font-family="Consolas" font-size="10.00">stall</text>
</g>
<!-- hazard&#45;&gt;id_ex -->
<g id="edge17" class="edge">
<title>hazard&#45;&gt;id_ex</title>
<path fill="none" stroke="#555555" d="M83.25,-302.63C83.25,-283.88 83.25,-257.5 83.25,-257.5 83.25,-257.5 1036.25,-257.5 1036.25,-257.5 1036.25,-257.5 1036.25,-254.66 1036.25,-254.66"/>
<polygon fill="#555555" stroke="#555555" points="1039.75,-254.66 1036.25,-244.66 1032.75,-254.66 1039.75,-254.66"/>
<text xml:space="preserve" text-anchor="middle" x="514.25" y="-448" font-family="Consolas" font-size="10.00">bubble</text>
</g>
<!-- forward -->
<g id="node16" class="node">
<title>forward</title>
<path fill="#f1f8e9" stroke="#555555" d="M1095.75,-36C1095.75,-36 977.75,-36 977.75,-36 971.75,-36 965.75,-30 965.75,-24 965.75,-24 965.75,-12 965.75,-12 965.75,-6 971.75,0 977.75,0 977.75,0 1095.75,0 1095.75,0 1101.75,0 1107.75,-6 1107.75,-12 1107.75,-12 1107.75,-24 1107.75,-24 1107.75,-30 1101.75,-36 1095.75,-36"/>
<text xml:space="preserve" text-anchor="middle" x="1036.75" y="-18.8" font-family="Consolas" font-size="11.00">Forwarding unit</text>
<text xml:space="preserve" text-anchor="middle" x="1036.75" y="-7.55" font-family="Consolas" font-size="11.00">EX/MEM + MEM/WB paths</text>
</g>
<!-- forward&#45;&gt;ex_stage -->
<g id="edge18" class="edge">
<title>forward&#45;&gt;ex_stage</title>
<path fill="none" stroke="#555555" d="M1089.25,-36.19C1089.25,-85.67 1089.25,-219 1089.25,-219 1089.25,-219 1261.73,-219 1261.73,-219"/>
<polygon fill="#555555" stroke="#555555" points="1261.73,-222.5 1271.73,-219 1261.73,-215.5 1261.73,-222.5"/>
<text xml:space="preserve" text-anchor="middle" x="1190.62" y="-19" font-family="Consolas" font-size="10.00">forward_a/forward_b</text>
</g>
<!-- flush_ctl&#45;&gt;if_id -->
<g id="edge19" class="edge">
<title>flush_ctl&#45;&gt;if_id</title>
<path fill="none" stroke="#555555" d="M698.31,-136C626.3,-136 514.25,-136 514.25,-136 514.25,-136 514.25,-203.24 514.25,-203.24"/>
<polygon fill="#555555" stroke="#555555" points="510.75,-203.24 514.25,-213.24 517.75,-203.24 510.75,-203.24"/>
<text xml:space="preserve" text-anchor="middle" x="595.38" y="-173" font-family="Consolas" font-size="10.00">flush</text>
</g>
<!-- flush_ctl&#45;&gt;id_ex -->
<g id="edge20" class="edge">
<title>flush_ctl&#45;&gt;id_ex</title>
<path fill="none" stroke="#555555" d="M816.96,-143C898.82,-143 1036.25,-143 1036.25,-143 1036.25,-143 1036.25,-195.29 1036.25,-195.29"/>
<polygon fill="#555555" stroke="#555555" points="1032.75,-195.29 1036.25,-205.29 1039.75,-195.29 1032.75,-195.29"/>
<text xml:space="preserve" text-anchor="middle" x="919.62" y="-218" font-family="Consolas" font-size="10.00">flush</text>
</g>
</g>
</svg>
