<?xml version="1.0" encoding="UTF-8" standalone="no"?>
<!DOCTYPE svg PUBLIC "-//W3C//DTD SVG 1.1//EN"
 "http://www.w3.org/Graphics/SVG/1.1/DTD/svg11.dtd">
<!-- Generated by graphviz version 15.1.0 (20260618.0150)
 -->
<!-- Title: simd_unit Pages: 1 -->
<svg width="960pt" height="333pt"
 viewBox="0.00 0.00 960.00 333.00" xmlns="http://www.w3.org/2000/svg" xmlns:xlink="http://www.w3.org/1999/xlink">
<g id="graph0" class="graph" transform="scale(1 1) rotate(0) translate(4 328.5)">
<title>simd_unit</title>
<polygon fill="white" stroke="none" points="-4,4 -4,-328.5 956,-328.5 956,4 -4,4"/>
<text xml:space="preserve" text-anchor="middle" x="476" y="-301.5" font-family="Times New Roman,serif" font-size="20.00">Planned Packed&#45;SIMD Unit in 32&#45;Bit Scalar Registers (Not Implemented Yet)</text>
<!-- decode -->
<g id="node1" class="node">
<title>decode</title>
<path fill="#fafafa" stroke="#777777" stroke-dasharray="5,2" d="M238,-251C238,-251 12,-251 12,-251 6,-251 0,-245 0,-239 0,-239 0,-227 0,-227 0,-221 6,-215 12,-215 12,-215 238,-215 238,-215 244,-215 250,-221 250,-227 250,-227 250,-239 250,-239 250,-245 244,-251 238,-251"/>
<text xml:space="preserve" text-anchor="middle" x="125" y="-233.8" font-family="Consolas" font-size="11.00">Custom opcode decode</text>
<text xml:space="preserve" text-anchor="middle" x="125" y="-222.55" font-family="Consolas" font-size="11.00">PADD8 / PSUB8 / PMAXU8 / PMINU8 / PAVG8</text>
</g>
<!-- split -->
<g id="node4" class="node">
<title>split</title>
<path fill="#fafafa" stroke="#777777" stroke-dasharray="5,2" d="M409,-165C409,-165 327,-165 327,-165 321,-165 315,-159 315,-153 315,-153 315,-141 315,-141 315,-135 321,-129 327,-129 327,-129 409,-129 409,-129 415,-129 421,-135 421,-141 421,-141 421,-153 421,-153 421,-159 415,-165 409,-165"/>
<text xml:space="preserve" text-anchor="middle" x="368" y="-147.8" font-family="Consolas" font-size="11.00">Byte lane split</text>
<text xml:space="preserve" text-anchor="middle" x="368" y="-136.55" font-family="Consolas" font-size="11.00">4 x 8&#45;bit lanes</text>
</g>
<!-- decode&#45;&gt;split -->
<g id="edge1" class="edge">
<title>decode&#45;&gt;split</title>
<path fill="none" stroke="#777777" stroke-dasharray="5,2" d="M230,-214.85C230,-191.24 230,-153 230,-153 230,-153 303.13,-153 303.13,-153"/>
<polygon fill="#777777" stroke="#777777" points="303.13,-156.5 313.13,-153 303.13,-149.5 303.13,-156.5"/>
</g>
<!-- rs1 -->
<g id="node2" class="node">
<title>rs1</title>
<path fill="#fafafa" stroke="#777777" stroke-dasharray="5,2" d="M199,-165C199,-165 51,-165 51,-165 45,-165 39,-159 39,-153 39,-153 39,-141 39,-141 39,-135 45,-129 51,-129 51,-129 199,-129 199,-129 205,-129 211,-135 211,-141 211,-141 211,-153 211,-153 211,-159 205,-165 199,-165"/>
<text xml:space="preserve" text-anchor="middle" x="125" y="-147.8" font-family="Consolas" font-size="11.00">rs1 32&#45;bit scalar register</text>
<text xml:space="preserve" text-anchor="middle" x="125" y="-136.55" font-family="Consolas" font-size="11.00">{b3,b2,b1,b0}</text>
</g>
<!-- rs1&#45;&gt;split -->
<g id="edge2" class="edge">
<title>rs1&#45;&gt;split</title>
<path fill="none" stroke="#777777" stroke-dasharray="5,2" d="M211.36,-141C211.36,-141 303.28,-141 303.28,-141"/>
<polygon fill="#777777" stroke="#777777" points="303.28,-144.5 313.28,-141 303.28,-137.5 303.28,-144.5"/>
</g>
<!-- rs2 -->
<g id="node3" class="node">
<title>rs2</title>
<path fill="#fafafa" stroke="#777777" stroke-dasharray="5,2" d="M199,-79C199,-79 51,-79 51,-79 45,-79 39,-73 39,-67 39,-67 39,-55 39,-55 39,-49 45,-43 51,-43 51,-43 199,-43 199,-43 205,-43 211,-49 211,-55 211,-55 211,-67 211,-67 211,-73 205,-79 199,-79"/>
<text xml:space="preserve" text-anchor="middle" x="125" y="-61.8" font-family="Consolas" font-size="11.00">rs2 32&#45;bit scalar register</text>
<text xml:space="preserve" text-anchor="middle" x="125" y="-50.55" font-family="Consolas" font-size="11.00">{b3,b2,b1,b0}</text>
</g>
<!-- rs2&#45;&gt;split -->
<g id="edge3" class="edge">
<title>rs2&#45;&gt;split</title>
<path fill="none" stroke="#777777" stroke-dasharray="5,2" d="M211.35,-61C274.8,-61 350,-61 350,-61 350,-61 350,-117.25 350,-117.25"/>
<polygon fill="#777777" stroke="#777777" points="346.5,-117.25 350,-127.25 353.5,-117.25 346.5,-117.25"/>
</g>
<!-- lane0 -->
<g id="node5" class="node">
<title>lane0</title>
<path fill="#fafafa" stroke="#777777" stroke-dasharray="5,2" d="M544,-294C544,-294 498,-294 498,-294 492,-294 486,-288 486,-282 486,-282 486,-270 486,-270 486,-264 492,-258 498,-258 498,-258 544,-258 544,-258 550,-258 556,-264 556,-270 556,-270 556,-282 556,-282 556,-288 550,-294 544,-294"/>
<text xml:space="preserve" text-anchor="middle" x="521" y="-276.8" font-family="Consolas" font-size="11.00">lane 0</text>
<text xml:space="preserve" text-anchor="middle" x="521" y="-265.55" font-family="Consolas" font-size="11.00">8&#45;bit ALU</text>
</g>
<!-- split&#45;&gt;lane0 -->
<g id="edge4" class="edge">
<title>split&#45;&gt;lane0</title>
<path fill="none" stroke="#777777" stroke-dasharray="5,2" d="M368,-165.48C368,-201.15 368,-276 368,-276 368,-276 474,-276 474,-276"/>
<polygon fill="#777777" stroke="#777777" points="474,-279.5 484,-276 474,-272.5 474,-279.5"/>
</g>
<!-- lane1 -->
<g id="node6" class="node">
<title>lane1</title>
<path fill="#fafafa" stroke="#777777" stroke-dasharray="5,2" d="M544,-208C544,-208 498,-208 498,-208 492,-208 486,-202 486,-196 486,-196 486,-184 486,-184 486,-178 492,-172 498,-172 498,-172 544,-172 544,-172 550,-172 556,-178 556,-184 556,-184 556,-196 556,-196 556,-202 550,-208 544,-208"/>
<text xml:space="preserve" text-anchor="middle" x="521" y="-190.8" font-family="Consolas" font-size="11.00">lane 1</text>
<text xml:space="preserve" text-anchor="middle" x="521" y="-179.55" font-family="Consolas" font-size="11.00">8&#45;bit ALU</text>
</g>
<!-- split&#45;&gt;lane1 -->
<g id="edge5" class="edge">
<title>split&#45;&gt;lane1</title>
<path fill="none" stroke="#777777" stroke-dasharray="5,2" d="M421.31,-157.8C457.94,-157.8 500,-157.8 500,-157.8 500,-157.8 500,-160.13 500,-160.13"/>
<polygon fill="#777777" stroke="#777777" points="496.5,-160.13 500,-170.13 503.5,-160.13 496.5,-160.13"/>
</g>
<!-- lane2 -->
<g id="node7" class="node">
<title>lane2</title>
<path fill="#fafafa" stroke="#777777" stroke-dasharray="5,2" d="M544,-122C544,-122 498,-122 498,-122 492,-122 486,-116 486,-110 486,-110 486,-98 486,-98 486,-92 492,-86 498,-86 498,-86 544,-86 544,-86 550,-86 556,-92 556,-98 556,-98 556,-110 556,-110 556,-116 550,-122 544,-122"/>
<text xml:space="preserve" text-anchor="middle" x="521" y="-104.8" font-family="Consolas" font-size="11.00">lane 2</text>
<text xml:space="preserve" text-anchor="middle" x="521" y="-93.55" font-family="Consolas" font-size="11.00">8&#45;bit ALU</text>
</g>
<!-- split&#45;&gt;lane2 -->
<g id="edge6" class="edge">
<title>split&#45;&gt;lane2</title>
<path fill="none" stroke="#777777" stroke-dasharray="5,2" d="M421.12,-143.4C462.87,-143.4 514,-143.4 514,-143.4 514,-143.4 514,-133.83 514,-133.83"/>
<polygon fill="#777777" stroke="#777777" points="517.5,-133.83 514,-123.83 510.5,-133.83 517.5,-133.83"/>
</g>
<!-- lane3 -->
<g id="node8" class="node">
<title>lane3</title>
<path fill="#fafafa" stroke="#777777" stroke-dasharray="5,2" d="M544,-36C544,-36 498,-36 498,-36 492,-36 486,-30 486,-24 486,-24 486,-12 486,-12 486,-6 492,0 498,0 498,0 544,0 544,0 550,0 556,-6 556,-12 556,-12 556,-24 556,-24 556,-30 550,-36 544,-36"/>
<text xml:space="preserve" text-anchor="middle" x="521" y="-18.8" font-family="Consolas" font-size="11.00">lane 3</text>
<text xml:space="preserve" text-anchor="middle" x="521" y="-7.55" font-family="Consolas" font-size="11.00">8&#45;bit ALU</text>
</g>
<!-- split&#45;&gt;lane3 -->
<g id="edge7" class="edge">
<title>split&#45;&gt;lane3</title>
<path fill="none" stroke="#777777" stroke-dasharray="5,2" d="M386,-128.52C386,-92.85 386,-18 386,-18 386,-18 474.02,-18 474.02,-18"/>
<polygon fill="#777777" stroke="#777777" points="474.02,-21.5 484.02,-18 474.02,-14.5 474.02,-21.5"/>
</g>
<!-- pack -->
<g id="node9" class="node">
<title>pack</title>
<path fill="#fafafa" stroke="#777777" stroke-dasharray="5,2" d="M721,-165C721,-165 633,-165 633,-165 627,-165 621,-159 621,-153 621,-153 621,-141 621,-141 621,-135 627,-129 633,-129 633,-129 721,-129 721,-129 727,-129 733,-135 733,-141 733,-141 733,-153 733,-153 733,-159 727,-165 721,-165"/>
<text xml:space="preserve" text-anchor="middle" x="677" y="-147.8" font-family="Consolas" font-size="11.00">Pack result</text>
<text xml:space="preserve" text-anchor="middle" x="677" y="-136.55" font-family="Consolas" font-size="11.00">32&#45;bit scalar rd</text>
</g>
<!-- lane0&#45;&gt;pack -->
<g id="edge8" class="edge">
<title>lane0&#45;&gt;pack</title>
<path fill="none" stroke="#777777" stroke-dasharray="5,2" d="M556.4,-276C602.43,-276 677,-276 677,-276 677,-276 677,-177 677,-177"/>
<polygon fill="#777777" stroke="#777777" points="680.5,-177 677,-167 673.5,-177 680.5,-177"/>
</g>
<!-- lane1&#45;&gt;pack -->
<g id="edge9" class="edge">
<title>lane1&#45;&gt;pack</title>
<path fill="none" stroke="#777777" stroke-dasharray="5,2" d="M542,-171.68C542,-161.4 542,-150.6 542,-150.6 542,-150.6 609.02,-150.6 609.02,-150.6"/>
<polygon fill="#777777" stroke="#777777" points="609.02,-154.1 619.02,-150.6 609.02,-147.1 609.02,-154.1"/>
</g>
<!-- lane2&#45;&gt;pack -->
<g id="edge10" class="edge">
<title>lane2&#45;&gt;pack</title>
<path fill="none" stroke="#777777" stroke-dasharray="5,2" d="M528,-122.36C528,-129.59 528,-136.2 528,-136.2 528,-136.2 609.16,-136.2 609.16,-136.2"/>
<polygon fill="#777777" stroke="#777777" points="609.16,-139.7 619.16,-136.2 609.16,-132.7 609.16,-139.7"/>
</g>
<!-- lane3&#45;&gt;pack -->
<g id="edge11" class="edge">
<title>lane3&#45;&gt;pack</title>
<path fill="none" stroke="#777777" stroke-dasharray="5,2" d="M556.4,-18C602.43,-18 677,-18 677,-18 677,-18 677,-117 677,-117"/>
<polygon fill="#777777" stroke="#777777" points="673.5,-117 677,-127 680.5,-117 673.5,-117"/>
</g>
<!-- wb -->
<g id="node10" class="node">
<title>wb</title>
<path fill="#fafafa" stroke="#777777" stroke-dasharray="5,2" d="M940,-165C940,-165 810,-165 810,-165 804,-165 798,-159 798,-153 798,-153 798,-141 798,-141 798,-135 804,-129 810,-129 810,-129 940,-129 940,-129 946,-129 952,-135 952,-141 952,-141 952,-153 952,-153 952,-159 946,-165 940,-165"/>
<text xml:space="preserve" text-anchor="middle" x="875" y="-147.8" font-family="Consolas" font-size="11.00">Existing writeback path</text>
<text xml:space="preserve" text-anchor="middle" x="875" y="-136.55" font-family="Consolas" font-size="11.00">no vector register file</text>
</g>
<!-- pack&#45;&gt;wb -->
<g id="edge12" class="edge">
<title>pack&#45;&gt;wb</title>
<path fill="none" stroke="#777777" stroke-dasharray="5,2" d="M733.47,-147C733.47,-147 786.26,-147 786.26,-147"/>
<polygon fill="#777777" stroke="#777777" points="786.26,-150.5 796.26,-147 786.26,-143.5 786.26,-150.5"/>
</g>
</g>
</svg>
